<svg width="16" height="16" fill="none" xmlns="http://www.w3.org/2000/svg"><path d="M.273 12.48a.91.91 0 0 0-.133 1.135c.567.901 1.333 1.635 2.232 2.236.267.167.633.2.9.033.1-.033.166-.1.233-.167l5.163-5.172-5.663-.834-2.732 2.77ZM11.039 5.541l-1.033-1.034c-.066 0-.1-.034-.166-.034-.2-.1-.433-.233-.6-.433-.167-.134-.4-.134-.533 0L5.109 7.677l3.298.534 2.632-2.67Z" fill="#0A182E"/><path d="M11.647 6.338c-.034-.033-.034-.066-.067-.1a.475.475 0 0 1-.066-.2l-.2-.2L8.549 8.64l-3.731-.6-.466.466 4.497.701 2.798-2.87Z" fill="#000"/><path d="M11.895 6.643 8.963 9.579l-2.498-.4-2.498-.4-.6.6 5.663.867 2.931-2.936a.38.38 0 0 0 .1-.267c0-.1-.033-.2-.1-.267 0-.033-.033-.1-.066-.133Z" fill="#000"/><path d="M15.975 1.135 14.909.067A.252.252 0 0 0 14.776 0c-.034 0-.067 0-.1.033l-.4.4c-.066.068-.066.134 0 .201l-3.664 3.67c-.067.034-.1.1-.167.134l.866.868.267.267c.033-.067.067-.134.133-.167l3.664-3.67c.067.066.167.066.2 0l.4-.401a.213.213 0 0 0 0-.2Z" fill="#19398A"/></svg>